<svg version="1.1" id="Layer_1" xmlns="http://www.w3.org/2000/svg" xmlns:xlink="http://www.w3.org/1999/xlink" x="0px" y="0px" width="400.518px" height="50.415px" viewBox="0 0 400.518 50.415" enable-background="new 0 0 400.518 50.415" xml:space="preserve">
                      <g>
                        <defs>
                          <rect id="SVGID_1_" y="0" width="400.518" height="50.415"></rect>
                        </defs>
                        <clipPath id="SVGID_2_">
                          <use xlink:href="#SVGID_1_" overflow="visible"></use>
                        </clipPath>
                        <path clip-path="url(#SVGID_2_)" fill="#FDBB1C" d="M361.49,33.983c-0.146,0.156-0.244,0.265-0.347,0.367
                          c-1.404,1.407-2.809,2.812-4.271,4.276c-0.636-0.649-1.261-1.264-1.857-1.906c-0.23-0.246-0.402-0.253-0.707-0.111
                          c-0.83,0.389-1.675,0.751-2.538,1.057c-0.351,0.124-0.45,0.274-0.442,0.62c0.021,0.845,0.007,1.69,0.007,2.577h-6.494
                          c0-0.835-0.024-1.675,0.01-2.512c0.017-0.429-0.14-0.579-0.54-0.717c-0.831-0.284-1.64-0.646-2.435-1.02
                          c-0.296-0.14-0.471-0.156-0.707,0.1c-0.587,0.636-1.205,1.24-1.761,1.807c-1.544-1.546-3.058-3.062-4.629-4.634
                          c0.54-0.531,1.155-1.155,1.795-1.752c0.246-0.229,0.256-0.402,0.113-0.707c-0.388-0.83-0.751-1.675-1.058-2.538
                          c-0.122-0.349-0.273-0.451-0.618-0.442c-0.846,0.021-1.692,0.007-2.576,0.007V21.96c0.836,0,1.674-0.017,2.512,0.008
                          c0.383,0.012,0.561-0.092,0.698-0.487c0.293-0.848,0.659-1.673,1.038-2.486c0.14-0.298,0.149-0.474-0.103-0.708
                          c-0.635-0.587-1.241-1.205-1.809-1.762c1.547-1.545,3.063-3.059,4.638-4.633c0.533,0.544,1.158,1.16,1.754,1.802
                          c0.23,0.247,0.402,0.256,0.707,0.113c0.829-0.388,1.674-0.752,2.537-1.057c0.353-0.125,0.449-0.278,0.441-0.622
                          c-0.021-0.845-0.007-1.691-0.007-2.576h6.494c0,0.801,0.03,1.604-0.012,2.403c-0.024,0.48,0.111,0.693,0.594,0.849
                          c0.818,0.263,1.605,0.63,2.385,0.997c0.296,0.139,0.471,0.155,0.709-0.1c0.589-0.632,1.212-1.233,1.795-1.819
                          c1.522,1.542,3.028,3.066,4.598,4.652c-0.542,0.529-1.158,1.152-1.801,1.748c-0.246,0.228-0.256,0.4-0.113,0.706
                          c0.389,0.829,0.751,1.675,1.057,2.538c0.124,0.351,0.276,0.45,0.621,0.441c0.845-0.02,1.691-0.007,2.575-0.007v6.495
                          c-0.799,0-1.601,0.029-2.4-0.012c-0.479-0.024-0.694,0.109-0.85,0.594c-0.264,0.817-0.63,1.604-0.997,2.384
                          c-0.138,0.295-0.157,0.472,0.1,0.709C360.228,32.716,360.832,33.336,361.49,33.983 M336.313,27.31
                          c0.049,0.084,0.089,0.128,0.1,0.179c0.34,1.521,0.917,2.942,1.74,4.269c0.064,0.102-0.018,0.377-0.122,0.486
                          c-0.558,0.585-1.144,1.142-1.684,1.673c1.018,1.021,2.002,2.006,3.031,3.04c0.613-0.623,1.268-1.289,1.9-1.933
                          c0.782,0.399,1.497,0.822,2.256,1.137c0.777,0.321,1.599,0.537,2.46,0.818v2.763h4.205v-2.77c0.841-0.275,1.661-0.492,2.438-0.813
                          c0.772-0.32,1.501-0.746,2.315-1.16c0.633,0.655,1.27,1.314,1.865,1.932c1.01-1.006,1.995-1.988,3.016-3.005
                          c-0.546-0.537-1.113-1.113-1.702-1.669c-0.214-0.201-0.231-0.353-0.075-0.607c0.298-0.483,0.6-0.976,0.812-1.501
                          c0.368-0.916,0.67-1.857,1.023-2.857h2.727v-4.198c-0.836,0-1.626,0.014-2.417-0.011c-0.158-0.005-0.427-0.128-0.452-0.239
                          c-0.355-1.577-0.993-3.032-1.934-4.487c0.698-0.638,1.385-1.267,2-1.829c-1.041-1.044-2.022-2.027-3.054-3.061
                          c-0.588,0.622-1.22,1.289-1.831,1.935c-0.116-0.031-0.178-0.033-0.221-0.061c-1.296-0.832-2.687-1.433-4.194-1.773
                          c-0.132-0.03-0.295-0.297-0.301-0.459c-0.032-0.804-0.016-1.61-0.016-2.443h-4.224c0,0.816-0.016,1.604,0.008,2.39
                          c0.009,0.333-0.097,0.462-0.426,0.563c-0.911,0.279-1.815,0.588-2.697,0.947c-0.538,0.219-1.029,0.553-1.644,0.892
                          c-0.64-0.665-1.283-1.335-1.84-1.914c-1.004,1.001-1.985,1.979-3.025,3.015c0.611,0.584,1.274,1.217,1.97,1.879
                          c-0.912,1.371-1.537,2.831-1.892,4.408c-0.026,0.112-0.294,0.235-0.453,0.24c-0.803,0.024-1.608,0.011-2.428,0.011v4.215H336.313z"></path>
                        <path clip-path="url(#SVGID_2_)" fill="#FDBB1C" d="M348.077,20.684c2.466-0.011,4.552,2.078,4.534,4.54
                          c-0.018,2.458-2.057,4.496-4.514,4.507c-2.465,0.011-4.55-2.078-4.533-4.541C343.581,22.732,345.622,20.695,348.077,20.684"></path>
                        <polygon clip-path="url(#SVGID_2_)" fill="#FDBB1C" points="0,49.868 0,0.683 6.187,0.683 6.187,44.502 23.857,44.502 
                          23.857,49.868   "></polygon>
                        <path clip-path="url(#SVGID_2_)" fill="#FDBB1C" d="M68.992,7.452c4.956,4.968,7.434,10.881,7.434,17.739
                          c0,6.904-2.478,12.834-7.434,17.791c-4.957,4.955-11.012,7.434-18.167,7.434c-7.132,0-13.176-2.479-18.132-7.434
                          c-4.956-4.957-7.434-10.887-7.434-17.791c0-6.858,2.478-12.771,7.434-17.739C37.649,2.484,43.693,0,50.825,0
                          C57.98,0,64.035,2.484,68.992,7.452 M50.825,5.4c-5.241,0-9.775,1.92-13.604,5.759C33.393,15,31.479,19.676,31.479,25.19
                          c0,5.561,1.914,10.254,5.742,14.082c3.829,3.828,8.363,5.742,13.604,5.742c5.264,0,9.81-1.914,13.638-5.742
                          c3.828-3.828,5.742-8.521,5.742-14.082c0-5.514-1.914-10.19-5.742-14.031C60.635,7.32,56.089,5.4,50.825,5.4"></path>
                        <path clip-path="url(#SVGID_2_)" fill="#FDBB1C" d="M124.175,43.169c-5.036,4.831-10.892,7.246-17.568,7.246
                          c-7.156,0-13.2-2.466-18.133-7.4c-4.933-4.933-7.4-10.852-7.4-17.756c0-6.836,2.467-12.737,7.4-17.705
                          c4.933-4.967,10.977-7.451,18.133-7.451c6.653,0,12.749,2.529,18.286,7.587l-4.307,3.829c-4.512-3.988-9.172-5.982-13.979-5.982
                          c-5.242,0-9.77,1.909-13.587,5.726c-3.817,3.816-5.725,8.482-5.725,13.996c0,5.561,1.908,10.243,5.725,14.048
                          c3.817,3.806,8.345,5.708,13.587,5.708c4.488,0,8.294-1.253,11.416-3.76V26.284h6.152V43.169z"></path>
                        <path clip-path="url(#SVGID_2_)" fill="#FDBB1C" d="M173.308,7.452c4.957,4.968,7.435,10.881,7.435,17.739
                          c0,6.904-2.478,12.834-7.435,17.791c-4.956,4.955-11.011,7.434-18.166,7.434c-7.132,0-13.176-2.479-18.132-7.434
                          c-4.956-4.957-7.434-10.887-7.434-17.791c0-6.858,2.478-12.771,7.434-17.739C141.966,2.484,148.01,0,155.142,0
                          C162.296,0,168.352,2.484,173.308,7.452 M155.142,5.4c-5.241,0-9.775,1.92-13.604,5.759c-3.828,3.841-5.742,8.517-5.742,14.031
                          c0,5.561,1.914,10.254,5.742,14.082c3.829,3.828,8.363,5.742,13.604,5.742c5.264,0,9.81-1.914,13.638-5.742
                          c3.828-3.828,5.742-8.521,5.742-14.082c0-5.514-1.914-10.19-5.742-14.031C164.952,7.32,160.406,5.4,155.142,5.4"></path>
                        <polygon clip-path="url(#SVGID_2_)" fill="#4F498B" points="230.815,0.684 230.815,49.868 224.628,49.868 224.628,9.877 
                          208.461,31.104 192.26,9.877 192.26,49.868 186.074,49.868 186.074,0.684 192.67,0.684 208.461,21.363 224.219,0.684  "></polygon>
                        <polygon clip-path="url(#SVGID_2_)" fill="#4F498B" points="291.792,6.05 291.792,49.868 285.64,49.868 285.64,6.05 273.882,6.05 
                          273.882,0.684 303.516,0.684 303.516,6.05  "></polygon>
                        <rect x="308.779" y="0.683" clip-path="url(#SVGID_2_)" fill="#4F498B" width="6.187" height="49.185"></rect>
                        <path clip-path="url(#SVGID_2_)" fill="#4F498B" d="M361.177,39.033l4.307,3.828c-5.536,5.036-11.633,7.554-18.285,7.554
                          c-7.156,0-13.2-2.466-18.133-7.4c-4.935-4.933-7.4-10.852-7.4-17.755c0-6.836,2.466-12.738,7.4-17.705
                          c4.933-4.967,10.977-7.452,18.133-7.452c6.652,0,12.749,2.53,18.285,7.588l-4.307,3.828c-4.512-3.987-9.172-5.981-13.979-5.981
                          c-5.242,0-9.771,1.909-13.588,5.725c-3.816,3.817-5.725,8.483-5.725,13.997c0,5.56,1.908,10.243,5.725,14.047
                          c3.816,3.806,8.346,5.708,13.588,5.708C352.005,45.015,356.665,43.021,361.177,39.033"></path>
                        <path clip-path="url(#SVGID_2_)" fill="#4F498B" d="M385.102,23.994c-3.532-1.162-6.369-2.813-8.511-4.956
                          c-2.143-2.142-3.213-4.728-3.213-7.759c0-2.962,1.111-5.565,3.332-7.809c2.223-2.245,4.984-3.368,8.288-3.368
                          c3.259,0,6.051,1.152,8.374,3.453c1.208,1.185,2.154,2.848,2.838,4.99l-5.537,2.153c-0.684-1.846-1.3-3.042-1.846-3.589
                          c-1.117-1.138-2.393-1.709-3.829-1.709c-1.412,0-2.671,0.553-3.776,1.657c-1.105,1.107-1.657,2.513-1.657,4.222
                          c0,1.687,0.569,3.122,1.709,4.307c1.185,1.139,2.803,2.187,4.854,3.144c3.919,1.277,7.2,3.237,9.844,5.879
                          c3.03,3.008,4.546,6.563,4.546,10.664s-1.499,7.651-4.494,10.647c-2.997,2.996-6.672,4.494-11.024,4.494
                          c-4.375,0-8.077-1.538-11.107-4.614c-2.37-2.347-3.828-5.389-4.375-9.126l5.947-2.153c0.364,3.578,1.378,6.187,3.042,7.826
                          c1.822,1.824,3.987,2.735,6.493,2.735c2.53,0,4.735-0.939,6.614-2.82c1.881-1.879,2.82-4.209,2.82-6.989
                          c0-2.779-0.923-5.093-2.77-6.938C389.796,26.489,387.608,25.043,385.102,23.994"></path>
                        <path clip-path="url(#SVGID_2_)" fill="#4F4A8C" d="M247.59,11.722"></path>
                        <path clip-path="url(#SVGID_2_)" fill="#4F4A8C" d="M261.728,11.711"></path>
                        <polygon clip-path="url(#SVGID_2_)" fill="#FDBB1C" points="254.503,10.707 254.661,10.271 254.82,10.707 260.941,10.707 
                          254.661,0.684 248.376,10.707  "></polygon>
                        <polygon clip-path="url(#SVGID_2_)" fill="#4F498B" points="233.96,49.868 240.42,49.868 253.674,12.784 247.731,12.784  "></polygon>
                        <polygon clip-path="url(#SVGID_2_)" fill="#4F498B" points="275.279,49.868 268.819,49.868 255.565,12.784 261.509,12.784  "></polygon>
                      </g>
                  </svg>